<svg xmlns="http://www.w3.org/2000/svg" viewBox="0 0 24 24" preserveAspectRatio="xMidYMid meet" style="width: 200px; height: 200px; transform-origin: 50% 50%; transform: scaleX(1) scaleY(1) rotate(0deg);"><g data-name="39. Document" id="_39._Document" fill="#1458E1" style="fill:#1458E1;stroke:none" stroke="none"><path d="M21.707,6.293l-6-6A1,1,0,0,0,15,0H5A3,3,0,0,0,2,3V21a3,3,0,0,0,3,3H19a3,3,0,0,0,3-3V7A1,1,0,0,0,21.707,6.293ZM16,3.414,18.586,6H16ZM19,22H5a1,1,0,0,1-1-1V3A1,1,0,0,1,5,2h9V7a1,1,0,0,0,1,1h5V21A1,1,0,0,1,19,22Z" fill="#1458E1" style="fill:#1458E1;stroke:none" stroke="none"/><path d="M17,10H9a1,1,0,0,0,0,2h8a1,1,0,0,0,0-2Z" fill="#1458E1" style="fill:#1458E1;stroke:none" stroke="none"/><path d="M17,14H7a1,1,0,0,0,0,2H17a1,1,0,0,0,0-2Z" fill="#1458E1" style="fill:#1458E1;stroke:none" stroke="none"/><path d="M15,18H7a1,1,0,0,0,0,2h8a1,1,0,0,0,0-2Z" fill="#1458E1" style="fill:#1458E1;stroke:none" stroke="none"/></g></svg>